<svg width="428" height="158" viewBox="0 0 428 158" fill="none" xmlns="http://www.w3.org/2000/svg">
<ellipse cx="214" cy="79" rx="214" ry="79" fill="#5C72BD"/>
<path d="M108.032 68.7678H101.817C101.735 68.1297 101.565 67.5539 101.308 67.0401C101.051 66.5264 100.711 66.0872 100.289 65.7227C99.8661 65.3581 99.3648 65.0805 98.7848 64.8899C98.2131 64.6911 97.5792 64.5916 96.8832 64.5916C95.6486 64.5916 94.5838 64.8941 93.6889 65.4989C92.8023 66.1038 92.1187 66.978 91.6381 68.1214C91.1658 69.2649 90.9297 70.6487 90.9297 72.2727C90.9297 73.9631 91.17 75.38 91.6506 76.5234C92.1394 77.6586 92.823 78.5162 93.7013 79.0962C94.5879 79.668 95.6361 79.9538 96.8459 79.9538C97.5253 79.9538 98.1426 79.8668 98.6978 79.6928C99.2612 79.5188 99.7543 79.2661 100.177 78.9347C100.608 78.5949 100.96 78.1848 101.233 77.7042C101.515 77.2153 101.71 76.6643 101.817 76.0511L108.032 76.0884C107.924 77.2153 107.597 78.3256 107.05 79.4194C106.511 80.5131 105.77 81.5116 104.825 82.4148C103.881 83.3097 102.729 84.0223 101.37 84.5526C100.019 85.0829 98.4699 85.348 96.7216 85.348C94.4181 85.348 92.3549 84.8426 90.532 83.8317C88.7173 82.8125 87.2839 81.3293 86.2315 79.3821C85.1792 77.4349 84.6531 75.0651 84.6531 72.2727C84.6531 69.4721 85.1875 67.0981 86.2564 65.1509C87.3253 63.2037 88.7712 61.7247 90.5941 60.7138C92.417 59.7029 94.4595 59.1974 96.7216 59.1974C98.2628 59.1974 99.688 59.4129 100.997 59.8438C102.306 60.2663 103.458 60.8878 104.452 61.7081C105.447 62.5201 106.255 63.5186 106.876 64.7035C107.498 65.8884 107.883 67.2431 108.032 68.7678ZM120.961 85H111.552V59.5455H120.949C123.542 59.5455 125.775 60.055 127.648 61.0742C129.529 62.0851 130.979 63.5434 131.998 65.4492C133.017 67.3467 133.527 69.6171 133.527 72.2603C133.527 74.9118 133.017 77.1905 131.998 79.0962C130.987 81.002 129.541 82.4645 127.66 83.4837C125.78 84.4946 123.546 85 120.961 85ZM117.705 79.755H120.725C122.15 79.755 123.356 79.5147 124.342 79.0341C125.336 78.5452 126.086 77.7539 126.592 76.6602C127.105 75.5581 127.362 74.0915 127.362 72.2603C127.362 70.4291 127.105 68.9708 126.592 67.8853C126.078 66.7915 125.32 66.0044 124.317 65.5238C123.323 65.0349 122.096 64.7905 120.638 64.7905H117.705V79.755ZM137.119 85V59.5455H143.271V80.0036H153.861V85H137.119ZM179.16 68.7678H172.945C172.863 68.1297 172.693 67.5539 172.436 67.0401C172.179 66.5264 171.839 66.0872 171.417 65.7227C170.994 65.3581 170.493 65.0805 169.913 64.8899C169.341 64.6911 168.707 64.5916 168.011 64.5916C166.776 64.5916 165.712 64.8941 164.817 65.4989C163.93 66.1038 163.247 66.978 162.766 68.1214C162.294 69.2649 162.058 70.6487 162.058 72.2727C162.058 73.9631 162.298 75.38 162.778 76.5234C163.267 77.6586 163.951 78.5162 164.829 79.0962C165.716 79.668 166.764 79.9538 167.974 79.9538C168.653 79.9538 169.271 79.8668 169.826 79.6928C170.389 79.5188 170.882 79.2661 171.305 78.9347C171.736 78.5949 172.088 78.1848 172.361 77.7042C172.643 77.2153 172.838 76.6643 172.945 76.0511L179.16 76.0884C179.052 77.2153 178.725 78.3256 178.178 79.4194C177.639 80.5131 176.898 81.5116 175.953 82.4148C175.009 83.3097 173.857 84.0223 172.498 84.5526C171.147 85.0829 169.598 85.348 167.85 85.348C165.546 85.348 163.483 84.8426 161.66 83.8317C159.845 82.8125 158.412 81.3293 157.359 79.3821C156.307 77.4349 155.781 75.0651 155.781 72.2727C155.781 69.4721 156.315 67.0981 157.384 65.1509C158.453 63.2037 159.899 61.7247 161.722 60.7138C163.545 59.7029 165.587 59.1974 167.85 59.1974C169.391 59.1974 170.816 59.4129 172.125 59.8438C173.434 60.2663 174.586 60.8878 175.58 61.7081C176.575 62.5201 177.383 63.5186 178.004 64.7035C178.625 65.8884 179.011 67.2431 179.16 68.7678ZM190.2 85V59.5455H207.576V64.5419H196.352V69.7621H206.469V74.771H196.352V85H190.2ZM216.826 59.5455V85H210.674V59.5455H216.826ZM242.352 59.5455V85H237.132L227.002 70.3089H226.841V85H220.688V59.5455H225.983L236.001 74.2116H236.212V59.5455H242.352ZM251.726 85H245.114L253.703 59.5455H261.893L270.482 85H263.87L257.891 65.9588H257.692L251.726 85ZM250.844 74.9822H264.665V79.6555H250.844V74.9822ZM294.886 59.5455V85H289.666L279.536 70.3089H279.375V85H273.222V59.5455H278.517L288.535 74.2116H288.746V59.5455H294.886ZM321.86 68.7678H315.646C315.563 68.1297 315.393 67.5539 315.136 67.0401C314.879 66.5264 314.539 66.0872 314.117 65.7227C313.694 65.3581 313.193 65.0805 312.613 64.8899C312.041 64.6911 311.407 64.5916 310.711 64.5916C309.477 64.5916 308.412 64.8941 307.517 65.4989C306.63 66.1038 305.947 66.978 305.466 68.1214C304.994 69.2649 304.758 70.6487 304.758 72.2727C304.758 73.9631 304.998 75.38 305.479 76.5234C305.968 77.6586 306.651 78.5162 307.529 79.0962C308.416 79.668 309.464 79.9538 310.674 79.9538C311.353 79.9538 311.971 79.8668 312.526 79.6928C313.089 79.5188 313.582 79.2661 314.005 78.9347C314.436 78.5949 314.788 78.1848 315.061 77.7042C315.343 77.2153 315.538 76.6643 315.646 76.0511L321.86 76.0884C321.752 77.2153 321.425 78.3256 320.878 79.4194C320.34 80.5131 319.598 81.5116 318.653 82.4148C317.709 83.3097 316.557 84.0223 315.198 84.5526C313.848 85.0829 312.298 85.348 310.55 85.348C308.246 85.348 306.183 84.8426 304.36 83.8317C302.545 82.8125 301.112 81.3293 300.06 79.3821C299.007 77.4349 298.481 75.0651 298.481 72.2727C298.481 69.4721 299.016 67.0981 300.085 65.1509C301.153 63.2037 302.599 61.7247 304.422 60.7138C306.245 59.7029 308.288 59.1974 310.55 59.1974C312.091 59.1974 313.516 59.4129 314.825 59.8438C316.134 60.2663 317.286 60.8878 318.281 61.7081C319.275 62.5201 320.083 63.5186 320.704 64.7035C321.326 65.8884 321.711 67.2431 321.86 68.7678ZM325.381 85V59.5455H343.129V64.5419H331.533V69.7621H342.222V74.771H331.533V80.0036H343.129V85H325.381Z" fill="#F8F8FF" fill-opacity="0.99"/>
</svg>
